<svg width="35" height="35" viewBox="0 0 35 35" fill="none" xmlns="http://www.w3.org/2000/svg">
<rect width="35" height="35" rx="17.5" fill="#F6F8F9"/>
<path d="M23.7574 12.3652C22.1262 10.8129 19.4711 10.8129 17.8393 12.3648L17.5 12.6871L17.1611 12.365C15.5292 10.8128 12.8744 10.813 11.2425 12.365C10.4412 13.1271 10 14.138 10 15.2111C10 16.2846 10.4412 17.2953 11.2426 18.0578L17.1377 23.6545C17.2391 23.751 17.3697 23.799 17.5 23.799C17.6303 23.799 17.7607 23.7508 17.8623 23.6543L23.7574 18.0578C24.5586 17.2955 25 16.2847 25 15.2113C25 14.138 24.5586 13.1273 23.7574 12.3652ZM23.0321 17.2946L17.5 22.5469L11.9681 17.2948C11.3777 16.7334 11.0526 15.9934 11.0526 15.2113C11.0526 14.4292 11.3777 13.6892 11.9681 13.1278C12.5839 12.5418 13.3926 12.249 14.2016 12.249C15.0107 12.249 15.8198 12.5422 16.4356 13.1281L17.1374 13.7947C17.3405 13.9878 17.6593 13.9878 17.8625 13.7947L18.5644 13.1278C19.7961 11.956 21.8002 11.956 23.0319 13.1278C23.6221 13.6892 23.9474 14.4292 23.9474 15.2113C23.9474 15.9934 23.6221 16.7332 23.0321 17.2946Z" fill="#696969"/>
</svg>
